<svg width="316" height="116" xmlns="http://www.w3.org/2000/svg" xmlns:xlink="http://www.w3.org/1999/xlink"><defs><radialGradient cx="50%" cy="0%" fx="50%" fy="0%" r="161.882%" gradientTransform="matrix(0 1 -.49831 0 .5 -.5)" id="b"><stop stop-color="#3A2DA0" offset="0%"/><stop stop-color="#FFF" stop-opacity="0" offset="0%"/><stop stop-color="#A52E9F" offset="100%"/></radialGradient><path d="M113.534 6.878c12.61 0 24.141 4.628 33.045 12.246l5.134 5.082a51.166 51.166 0 0 1 7.916 12.06l2.559 6.42a50.815 50.815 0 0 1 2.297 15.146h.027c0 2.926.382 5.756 1.035 8.49-4.522 2.17-8.868 4.433-13.098 6.65a50.815 50.815 0 0 1-2.297-15.144h-.028c0-2.926-.382-5.757-1.035-8.49a36.44 36.44 0 0 0-2.242-6.562 36.743 36.743 0 0 0-8.566-11.823 36.975 36.975 0 0 0-6.318-4.683c-5.42-3.178-11.706-5.032-18.429-5.032-11.568 0-21.881 5.41-28.59 13.818h-16.92c8.378-16.682 25.606-28.178 45.51-28.178zM55.782 56.29H14.058v.034c-3.958-.003-7.18-3.222-7.18-7.18 0-3.958 3.222-7.177 7.18-7.177v-.034H95.11c13.326 0 25.124-3.291 36.174-7.882a29.91 29.91 0 0 1 9.333 11.606c-13.388 5.942-28.261 10.63-45.504 10.63h-39.33v.003zm100.855 38.453c-14.316 7.463-28.075 14.031-43.103 14.031-26.293 0-47.989-20.014-50.664-45.61h14.505c2.6 17.649 17.8 31.253 36.163 31.253 11.39 0 22.696-5.255 35.383-11.844 1.636-.846 3.284-1.712 4.965-2.593l1.125-.591c4.123-2.163 8.373-4.378 12.782-6.51 2.043-.987 4.123-1.95 6.231-2.889 13.384-5.942 28.261-10.63 45.504-10.63h11.214a29.466 29.466 0 0 1-4.577 14.358h-6.637c-13.326 0-25.125 3.295-36.174 7.879a172.697 172.697 0 0 0-6.998 3.102c-4.564 2.142-9.024 4.44-13.429 6.75l-6.29 3.294zm92.847-21.021l-2.868 6.877c-8.381 16.682-25.606 28.175-45.51 28.175-12.607 0-24.141-4.629-33.045-12.242 4.787-2.494 9.64-4.942 14.616-7.15 5.42 3.181 11.705 5.035 18.428 5.035 11.565 0 21.879-5.41 28.591-13.821a36.56 36.56 0 0 0 4.316-6.878 36.322 36.322 0 0 0 3.607-14.357c.021-.513.076-1.021.076-1.54 0-1.816-.179-3.587-.433-5.338-2.6-17.648-17.8-31.252-36.16-31.252-11.39 0-22.697 5.258-35.383 11.843-2.084-4.374-4.652-8.477-7.716-12.167 14.316-7.462 28.075-14.037 43.099-14.037 26.294 0 47.99 20.018 50.665 45.61l.21 6.877c-.152 5.007-1.001 9.825-2.493 14.365zm39.072 0H256.66a57.481 57.481 0 0 0 2.198-14.358h29.701c-1.265 2.108-2.039 4.543-2.039 7.177 0 2.634.77 5.073 2.036 7.18zm12.019 0c-3.958 0-7.18-3.22-7.18-7.18 0-3.955 3.222-7.178 7.18-7.178 3.958 0 7.18 3.223 7.18 7.177a7.183 7.183 0 0 1-7.18 7.18z" id="a"/></defs><g fill="none" fill-rule="evenodd"><g transform="translate(.5 -.001)"><use fill="#9571DC" xlink:href="#a"/><use fill="url(#b)" xlink:href="#a"/></g><path d="M301.075 52.486h-41.91C256.46 23.097 231.69 0 201.605 0c-17.287 0-32.311 7.493-48.044 15.736C143.21 6.006 129.324-.001 114.034-.001c-23.803 0-44.278 14.463-53.137 35.052H14.558v.034C6.807 35.085.5 41.392.5 49.144c0 7.75 6.307 14.058 14.058 14.058v-.035h41.913c2.707 29.389 27.477 52.488 57.56 52.488 17.294 0 32.319-7.497 48.045-15.73 10.354 9.726 24.237 15.73 39.526 15.73 23.804 0 44.279-14.46 53.138-35.053h46.335c7.751 0 14.058-6.307 14.058-14.058 0-7.751-6.307-14.058-14.058-14.058zm-187.04-45.61c12.61 0 24.14 4.629 33.044 12.246l5.134 5.083a51.166 51.166 0 0 1 7.916 12.06l2.559 6.42a50.815 50.815 0 0 1 2.297 15.145h.027c0 2.927.382 5.757 1.035 8.49-4.522 2.17-8.868 4.433-13.098 6.652a50.815 50.815 0 0 1-2.297-15.145h-.028c0-2.927-.382-5.757-1.035-8.49a36.44 36.44 0 0 0-2.242-6.562 36.743 36.743 0 0 0-8.566-11.823 36.975 36.975 0 0 0-6.318-4.684c-5.42-3.177-11.706-5.03-18.429-5.03-11.568 0-21.881 5.408-28.59 13.816h-16.92c8.378-16.682 25.606-28.178 45.51-28.178zM146.81 76.18c-12.111 6.3-22.803 11.362-32.776 11.362-14.56 0-26.685-10.533-29.21-24.375h10.788c18.22 0 33.725-4.8 47.598-10.901.344 1.802.54 3.659.54 5.564h.027c-.003 6.417 1.09 12.573 3.033 18.35zm-23.064-46.404c-8.793 3.164-18.058 5.278-28.137 5.278h-.63c5.162-4.326 11.806-6.94 19.052-6.94 3.408-.003 6.665.603 9.715 1.662zM56.282 56.29H14.558v.034c-3.958-.004-7.18-3.222-7.18-7.18 0-3.959 3.222-7.177 7.18-7.177v-.035H95.61c13.326 0 25.124-3.29 36.174-7.882a29.91 29.91 0 0 1 9.333 11.607c-13.388 5.942-28.261 10.63-45.504 10.63h-39.33v.003zm100.855 38.453c-14.316 7.462-28.075 14.03-43.103 14.03-26.293 0-47.989-20.014-50.664-45.61h14.505c2.6 17.65 17.8 31.253 36.163 31.253 11.39 0 22.696-5.254 35.383-11.843 1.636-.846 3.284-1.713 4.965-2.593.372-.196.75-.396 1.125-.592 4.123-2.163 8.373-4.377 12.782-6.51 2.043-.986 4.123-1.95 6.231-2.888 13.384-5.942 28.261-10.63 45.504-10.63h11.214a29.466 29.466 0 0 1-4.577 14.358h-6.637c-13.326 0-25.125 3.294-36.174 7.878a172.697 172.697 0 0 0-6.998 3.102c-4.564 2.142-9.024 4.44-13.429 6.75l-6.29 3.295zm11.69-55.27c12.11-6.3 22.802-11.362 32.775-11.362 14.56 0 26.682 10.534 29.206 24.375h-10.784c-18.223 0-33.725 4.797-47.597 10.901a29.637 29.637 0 0 1-.54-5.564h-.028c.004-6.417-1.09-12.572-3.033-18.35zm51.83 41.126c-5.162 4.326-11.806 6.943-19.052 6.943-3.404 0-6.664-.605-9.71-1.661 8.792-3.164 18.057-5.279 28.136-5.279h.626V80.6zm29.327-6.878l-2.868 6.878c-8.381 16.682-25.606 28.175-45.51 28.175-12.607 0-24.141-4.63-33.045-12.243 4.787-2.493 9.64-4.941 14.616-7.15 5.42 3.182 11.705 5.035 18.428 5.035 11.565 0 21.879-5.409 28.591-13.82a36.56 36.56 0 0 0 4.316-6.878 36.322 36.322 0 0 0 3.607-14.358c.021-.512.076-1.02.076-1.54 0-1.816-.179-3.587-.433-5.337-2.6-17.649-17.8-31.253-36.16-31.253-11.39 0-22.697 5.258-35.383 11.844-2.084-4.375-4.652-8.477-7.716-12.167 14.316-7.462 28.075-14.038 43.099-14.038 26.294 0 47.99 20.018 50.665 45.61l.21 6.878c-.152 5.007-1.001 9.825-2.493 14.364zm39.072 0H257.16a57.481 57.481 0 0 0 2.198-14.357h29.701c-1.265 2.108-2.039 4.543-2.039 7.177 0 2.634.77 5.072 2.036 7.18zm12.019 0c-3.958 0-7.18-3.219-7.18-7.18 0-3.955 3.222-7.177 7.18-7.177 3.958 0 7.18 3.222 7.18 7.177a7.183 7.183 0 0 1-7.18 7.18z" fill="#362950" fill-rule="nonzero"/></g></svg>