<svg xmlns="http://www.w3.org/2000/svg" xmlns:xlink="http://www.w3.org/1999/xlink" width="100" height="100" viewBox="0 0 100 100"><g><rect width="100%" height="100%" fill="#CC0096"></rect><g transform="translate(50 50) scale(0.69 0.69) rotate(0) translate(-50 -50)" style="fill:#FFFFFF"><svg fill="#FFFFFF" xmlns="http://www.w3.org/2000/svg" xmlns:xlink="http://www.w3.org/1999/xlink" version="1.1" x="0px" y="0px" viewBox="0 0 100 100" enable-background="new 0 0 100 100" xml:space="preserve"><g><path d="M54.622,13.798c-0.611-3.366-0.961-5.277-0.961-5.277c-0.466-2.548-2.918-4.23-5.453-3.77   c-2.547,0.465-4.234,2.907-3.77,5.453c0,0,0.336,1.838,0.925,5.081c2.38-1.021,4.957-1.565,7.62-1.565   C53.533,13.72,54.078,13.756,54.622,13.798z"></path><path d="M38.29,67.132c0-0.36,0.015-0.707,0.043-1.042c0.043-0.485,0.127-0.937,0.232-1.373l0,0   c0.403-1.667,1.268-3.002,2.689-4.151c2.075-1.677,5.443-3.333,8.95-4.949c-0.468-2.687-1.027-5.862-1.681-9.541   c-4.781,2.175-9.725,4.423-13.161,7.198c-2.17,1.753-3.792,3.819-4.869,6.176c-1.047,2.29-1.579,4.854-1.579,7.683   c0,4.907,1.911,9.521,5.382,12.993c2.246,2.245,5.177,3.805,8.377,4.56c-0.522-2.97-1.192-6.737-2.051-11.522   C39.12,71.504,38.29,69.384,38.29,67.132z"></path><path d="M46.145,91.43c0.393,2.283,2.374,3.895,4.614,3.895c0.264,0,0.531-0.022,0.8-0.068c2.552-0.438,4.265-2.862,3.826-5.414   c0,0-5.069-29.429-5.443-31.519c-0.068,0.032-3.171,1.461-5.511,2.883c-1.939,1.179-2.955,2.241-3.086,2.333   C41.487,64.348,46.145,91.43,46.145,91.43z"></path><path d="M65.085,47.597c3.968-3.416,6-7.932,6-13.457c0-2.835-0.657-5.563-1.865-8.039c-0.883-1.809-2.051-3.486-3.516-4.952   c-3.231-3.231-7.868-5.085-12.721-5.085c-4.54,0-8.81,1.768-12.024,4.98c-3.083,3.084-4.637,7.118-4.65,12.03   c-0.005,1.588,0.296,3.432,0.468,5.039c0.274,2.576,1.838,10.2,1.838,10.2c0.538-0.304,1.107-0.613,1.715-0.931   c1.015-0.529,2.125-1.077,3.403-1.681c1.111-0.524,3.552-1.626,3.638-1.661c0,0-1.367-7.589-1.367-7.59   c-0.143-0.794-0.232-1.515-0.281-2.174c-0.326-4.405,1.229-5.968,1.866-6.604c1.442-1.441,3.358-2.235,5.396-2.235   c2.35,0,4.627,0.874,6.091,2.338c1.032,1.032,1.777,2.271,2.208,3.623c0.278,0.875,0.428,1.796,0.428,2.74   c0,1.17-0.159,2.193-0.475,3.113c0.801,4.477,1.494,8.378,2.083,11.724C63.739,48.691,64.913,47.78,65.085,47.597z"></path><path d="M57.418,29.435c-1.02-1.02-2.719-1.652-4.435-1.652c-1.411,0-2.739,0.55-3.739,1.549c-0.248,0.262-0.639,0.783-0.782,1.059   c-0.063,0.234-0.159,0.45-0.244,0.672c0.012,0.067,5.78,33.128,5.819,33.371c0.22,1.733,0.24,3.254,0.103,4.527   c0.021,0.096,1.762,9.75,2.393,13.337c0.89-0.604,1.731-1.292,2.509-2.068c3.855-3.857,5.372-10.438,4.159-18.057c0,0,0,0,0-0.001   C63.2,62.171,57.431,29.447,57.418,29.435z"></path></g></svg></g></g></svg>