<svg xmlns="http://www.w3.org/2000/svg" xmlns:xlink="http://www.w3.org/1999/xlink" version="1.1" x="0px" y="0px" viewBox="0 0 100 125" enable-background="new 0 0 100 100" xml:space="preserve"><rect x="48.291" y="21.68" width="5.938" height="2.32"/><rect x="50.044" y="15.74" transform="matrix(0.7071 0.7071 -0.7071 0.7071 27.8336 -33.3998)" width="8.385" height="2.32"/><rect x="59.014" y="10.956" width="2.32" height="5.937"/><path d="M94.857,12.546l-1.641-1.64l-18.79,18.79l0.858,0.859l-2.377-2.378l0.226,0.226l18.79-18.79l-0.039-0.039h0.001  l-1.641-1.641l-18.791,18.79l-1.292-1.293L88.951,6.64L87.312,5L68.369,23.942c-0.415-0.187-0.866-0.287-1.334-0.287  c-0.871,0-1.69,0.339-2.307,0.955c-0.557,0.557-0.869,1.266-0.939,1.994c-0.754,0.071-1.452,0.398-1.994,0.94  c-0.202,0.202-0.368,0.425-0.506,0.66c-0.797-0.205-1.661-0.333-2.591-0.333c-2.812,0-5.472,1.173-7.69,3.393l-2.603,2.603  c-0.391-0.391-1.023-0.391-1.414,0l-10.6,10.599c-0.391,0.391-0.391,1.023,0,1.414l-3.713,3.713  c-0.318,0.318-1.964,2.048-2.84,4.684c-0.699,2.106-0.718,4.243-0.103,6.255c-0.03,0.135-0.062,0.269-0.074,0.407  c-0.754,0.072-1.452,0.399-1.994,0.941c-0.616,0.615-0.955,1.435-0.955,2.306c0,0.487,0.11,0.957,0.312,1.386L5.143,87.453  l1.641,1.641l21.743-21.743l1.294,1.293L8.076,90.387l0.039,0.039l1.641,1.641l21.743-21.743l1.293,1.293L11.049,93.359L12.689,95  l21.895-21.896c0.415,0.186,0.867,0.287,1.335,0.287c0.871,0,1.69-0.34,2.306-0.955c0.542-0.542,0.869-1.241,0.94-1.994  c0.754-0.071,1.452-0.398,1.994-0.94c0.468-0.468,0.775-1.054,0.896-1.689c8.56-1.05,20.943-7.852,26.866-13.774  c3.594-3.593,4.799-8.134,3.487-13.133c-0.209-0.794-0.473-1.548-0.768-2.267c0.257-0.145,0.496-0.323,0.71-0.537  c0.542-0.542,0.869-1.24,0.94-1.993c0.753-0.071,1.452-0.398,1.993-0.94c0.616-0.616,0.955-1.435,0.955-2.306  c0-0.488-0.109-0.958-0.312-1.386L94.857,12.546z M62.615,32.978l1.293,1.293l-3.725,3.724c-0.06,0.061-0.115,0.124-0.17,0.188  c-0.356,0.192-0.829,0.145-1.123-0.15c-0.178-0.178-0.275-0.414-0.275-0.666s0.098-0.488,0.275-0.666L62.615,32.978z M38.513,45.173  l9.186-9.185l4.383,4.383l-9.186,9.186L38.513,45.173z M56.618,38.777c0.157,0.328,0.367,0.631,0.632,0.896  c0.541,0.542,1.24,0.87,1.994,0.941c0.071,0.753,0.398,1.452,0.939,1.993c0.616,0.616,1.436,0.956,2.307,0.956  c0.338,0,0.667-0.052,0.979-0.15c0.481,2.112-0.356,3.311-1.11,4.064c-4.07,4.069-11.119,7.965-16.645,9.909  c-0.004-0.004-0.007-0.008-0.011-0.013c-0.542-0.541-1.241-0.869-1.994-0.94c-0.071-0.753-0.398-1.452-0.94-1.993  c-0.322-0.322-0.694-0.562-1.093-0.721L56.618,38.777z M63.155,40.967c-0.354,0.355-0.975,0.356-1.331,0  c-0.178-0.178-0.275-0.414-0.275-0.666c0-0.161,0.044-0.314,0.12-0.451c0.065-0.057,0.132-0.114,0.194-0.177l3.724-3.724  l1.294,1.293L63.155,40.967z M52.647,32.905c1.775-1.775,3.867-2.713,6.051-2.713c0.793,0,1.532,0.123,2.21,0.313  c0.047,0.232,0.122,0.459,0.22,0.679l-3.878,3.877c-0.083,0.083-0.16,0.171-0.233,0.262c-0.364,0.216-0.725,0.501-1.088,0.863  l-2.603,2.603l-3.281-3.281L52.647,32.905z M32.041,55.008c0.724-2.178,2.121-3.617,2.278-3.774l3.712-3.713l3.281,3.282  l-3.712,3.712c-0.255,0.264-0.706,0.793-1.016,1.497l-2.291,2.29c-0.429-0.201-0.898-0.312-1.386-0.312  c-0.445,0-0.877,0.09-1.274,0.259c0.002-0.001,0.004-0.002,0.007-0.004C31.552,57.185,31.68,56.098,32.041,55.008z M41.405,56.745  c0,0.162-0.044,0.314-0.12,0.452c-0.066,0.057-0.132,0.113-0.194,0.176l-3.725,3.725l-1.294-1.294l3.725-3.725  c0.367-0.366,0.965-0.367,1.332,0C41.307,56.258,41.405,56.494,41.405,56.745z M36.584,70.796c-0.355,0.355-0.976,0.355-1.331,0  l-5.944-5.944c-0.178-0.178-0.275-0.414-0.275-0.666s0.098-0.488,0.275-0.666s0.414-0.275,0.666-0.275  c0.161,0,0.313,0.044,0.45,0.119c0.057,0.066,0.114,0.132,0.177,0.194l5.944,5.944c0.062,0.062,0.128,0.12,0.194,0.177  c0.076,0.137,0.12,0.29,0.12,0.451C36.86,70.381,36.763,70.617,36.584,70.796z M39.519,67.862c-0.295,0.293-0.768,0.341-1.124,0.148  c-0.055-0.063-0.109-0.127-0.17-0.187l-5.943-5.944c-0.062-0.062-0.129-0.12-0.195-0.177c-0.075-0.138-0.119-0.29-0.119-0.451  c0-0.252,0.098-0.488,0.275-0.666s0.414-0.275,0.666-0.275c0.251,0,0.487,0.098,0.666,0.275l5.944,5.944  c0.178,0.178,0.275,0.414,0.275,0.666C39.794,67.447,39.696,67.685,39.519,67.862z M40.338,64.069l-1.293-1.293l3.725-3.725  c0.061-0.06,0.115-0.124,0.17-0.188c0.357-0.191,0.829-0.145,1.124,0.149c0.178,0.178,0.275,0.414,0.275,0.666  c0,0.251-0.098,0.488-0.275,0.665L40.338,64.069z M67.281,52.398c-5.439,5.438-17.078,11.891-25.035,13.045l3.457-3.458  c0.616-0.615,0.956-1.435,0.956-2.306c0-0.049-0.006-0.097-0.008-0.145C52.911,57.287,60.27,52.848,64,49.117  c2.253-2.252,2.238-4.878,1.461-7.174l3.197-3.198c0.192,0.09,0.393,0.162,0.6,0.213C71.104,43.072,71.548,48.132,67.281,52.398z   M70.711,36.461c-0.355,0.356-0.976,0.356-1.331,0l-5.945-5.944c-0.367-0.367-0.367-0.964,0.001-1.332  c0.178-0.178,0.414-0.275,0.665-0.275c0.162,0,0.315,0.044,0.453,0.12c0.056,0.066,0.112,0.132,0.175,0.194l5.944,5.944  c0.062,0.062,0.128,0.12,0.194,0.177c0.076,0.137,0.12,0.29,0.12,0.451C70.987,36.046,70.889,36.283,70.711,36.461z M73.645,33.527  c-0.294,0.294-0.767,0.341-1.123,0.149c-0.055-0.064-0.11-0.127-0.17-0.188l-5.943-5.944c-0.062-0.062-0.128-0.12-0.194-0.176  c-0.196-0.357-0.147-0.815,0.155-1.118c0.178-0.177,0.414-0.275,0.666-0.275c0.251,0,0.488,0.098,0.666,0.275l5.943,5.945  c0.178,0.178,0.276,0.414,0.276,0.666S73.822,33.349,73.645,33.527z"/><text x="0" y="115" fill="#000000" font-size="5px" font-weight="bold" font-family="'Helvetica Neue', Helvetica, Arial-Unicode, Arial, Sans-serif">Created by Deivid Sáenz</text><text x="0" y="120" fill="#000000" font-size="5px" font-weight="bold" font-family="'Helvetica Neue', Helvetica, Arial-Unicode, Arial, Sans-serif">from the Noun Project</text></svg>