<svg xmlns="http://www.w3.org/2000/svg" xmlns:xlink="http://www.w3.org/1999/xlink" width="100" height="100" viewBox="0 0 100 100"><g><rect width="100%" height="100%" fill="#CC0096"></rect><g transform="translate(50 50) scale(0.69 0.69) rotate(0) translate(-50 -50)" style="fill:#FFFFFF"><svg fill="#FFFFFF" xmlns="http://www.w3.org/2000/svg" data-name="Layer 1" viewBox="0 0 100 100" x="0px" y="0px"><title>09</title><path d="M46.8,92a12,12,0,0,0,12-12V68.95a4,4,0,0,0-8,0V80a4,4,0,0,1-4,4h-27a4,4,0,0,1-4-4V20a4,4,0,0,1,4-4h27a4,4,0,0,1,4,4V31.2a4,4,0,1,0,8,0V20a12,12,0,0,0-12-12h-27a12,12,0,0,0-12,12V80a12,12,0,0,0,12,12Z"></path><path d="M90.82,47l-21-21a4,4,0,0,0-5.66,5.66L78.51,46H33.8a4,4,0,0,0,0,8H78.51L64.12,68.38A4,4,0,1,0,69.78,74l21-21a4,4,0,0,0,0-6Z"></path></svg></g></g></svg>