<svg xmlns="http://www.w3.org/2000/svg" xmlns:xlink="http://www.w3.org/1999/xlink" width="100" height="100" viewBox="0 0 100 100"><g><rect width="100%" height="100%" fill="#FF9C34"></rect><g transform="translate(50 50) scale(0.69 0.69) rotate(0) translate(-50 -50)" style="fill:#CC0096"><svg fill="#CC0096" xmlns="http://www.w3.org/2000/svg" xmlns:xlink="http://www.w3.org/1999/xlink" version="1.1" x="0px" y="0px" viewBox="0 0 100 100" enable-background="new 0 0 100 100" xml:space="preserve"><g><path d="M92.405,48.489H80.218c-0.787-8.546-7.99-15.263-16.738-15.263c-5.027,0-9.396,2.179-13.971,4.576   c-3.01-2.829-7.048-4.576-11.494-4.576c-6.922,0-12.876,4.206-15.452,10.193H9.088v0.01C6.834,43.429,5,45.263,5,47.517   s1.834,4.088,4.088,4.088v-0.01h12.188c0.787,8.546,7.99,15.263,16.738,15.263c5.029,0,9.398-2.18,13.971-4.574   c3.011,2.828,7.048,4.574,11.494,4.574c6.922,0,12.876-4.205,15.452-10.193h13.474c2.254,0,4.088-1.834,4.088-4.088   S94.659,48.489,92.405,48.489z M38.015,35.226c3.667,0,7.02,1.346,9.609,3.561l1.493,1.478c0.925,1.049,1.7,2.228,2.302,3.507   l0.744,1.867c0.434,1.393,0.668,2.871,0.668,4.404h0.008c0,0.851,0.111,1.674,0.301,2.469c-1.315,0.631-2.579,1.289-3.809,1.934   c-0.434-1.393-0.668-2.871-0.668-4.404h-0.008c0-0.851-0.111-1.674-0.301-2.469c-0.158-0.662-0.377-1.3-0.652-1.908   c-0.595-1.31-1.446-2.475-2.491-3.438c-0.562-0.517-1.176-0.974-1.837-1.362c-1.576-0.924-3.404-1.463-5.359-1.463   c-3.364,0-6.363,1.573-8.314,4.018h-4.92C27.217,38.569,32.227,35.226,38.015,35.226z M47.546,55.379   c-3.522,1.832-6.631,3.304-9.531,3.304c-4.234,0-7.76-3.063-8.494-7.088h3.137c5.298,0,9.807-1.396,13.841-3.17   c0.1,0.524,0.157,1.064,0.157,1.618h0.008C46.663,51.909,46.981,53.699,47.546,55.379z M40.839,41.885   c-2.557,0.92-5.251,1.535-8.182,1.535h-0.183c1.501-1.258,3.433-2.018,5.54-2.018C39.005,41.401,39.952,41.577,40.839,41.885z    M21.221,49.595H9.088v0.01C7.937,49.604,7,48.668,7,47.517s0.937-2.087,2.088-2.087v-0.01h12.771h2.087h4.498h2.282h1.931   c3.875,0,7.306-0.957,10.519-2.292c1.167,0.874,2.107,2.032,2.714,3.375c-3.893,1.728-8.218,3.091-13.232,3.091h-3.262h-2h-4.175   H21.221z M50.549,60.777c-4.163,2.17-8.164,4.08-12.534,4.08c-7.646,0-13.955-5.82-14.733-13.263h4.218   c0.756,5.132,5.176,9.088,10.516,9.088c3.312,0,6.6-1.528,10.289-3.444c0.476-0.246,0.955-0.498,1.444-0.754   c0.108-0.057,0.218-0.115,0.327-0.172c1.199-0.629,2.435-1.273,3.717-1.893c0.594-0.287,1.199-0.567,1.812-0.84   c3.892-1.728,8.218-3.091,13.232-3.091h3.261c-0.079,1.53-0.554,2.956-1.331,4.175h-1.93c-3.875,0-7.306,0.958-10.519,2.291   c-0.688,0.286-1.365,0.588-2.035,0.902c-1.327,0.623-2.624,1.291-3.905,1.963L50.549,60.777z M53.948,44.705   c3.522-1.832,6.631-3.304,9.531-3.304c4.234,0,7.759,3.063,8.493,7.088h-3.136c-5.299,0-9.807,1.395-13.841,3.17   c-0.1-0.524-0.157-1.064-0.157-1.618h-0.008C54.831,48.175,54.513,46.385,53.948,44.705z M69.02,56.664   c-1.501,1.258-3.433,2.019-5.54,2.019c-0.99,0-1.938-0.176-2.824-0.483c2.557-0.92,5.251-1.535,8.182-1.535H69.02z M77.548,54.664   l-0.834,2c-2.437,4.851-7.446,8.193-13.234,8.193c-3.666,0-7.02-1.346-9.609-3.56c1.392-0.725,2.803-1.437,4.25-2.079   c1.576,0.925,3.404,1.464,5.359,1.464c3.363,0,6.362-1.573,8.314-4.019c0.49-0.613,0.908-1.285,1.255-2   c0.617-1.272,0.986-2.683,1.049-4.175c0.006-0.149,0.022-0.297,0.022-0.448c0-0.528-0.052-1.043-0.126-1.552   c-0.756-5.132-5.176-9.088-10.515-9.088c-3.312,0-6.6,1.529-10.289,3.444c-0.606-1.272-1.353-2.465-2.244-3.538   c4.163-2.17,8.164-4.082,12.533-4.082c7.646,0,13.955,5.821,14.733,13.263l0.061,2C78.229,51.943,77.982,53.344,77.548,54.664z    M88.91,54.664h-9.275c0.382-1.332,0.601-2.73,0.639-4.175h8.637c-0.368,0.613-0.593,1.321-0.593,2.087S88.542,54.051,88.91,54.664   z M92.405,54.664c-1.151,0-2.088-0.936-2.088-2.088c0-1.15,0.937-2.087,2.088-2.087s2.088,0.937,2.088,2.087   C94.493,53.729,93.557,54.664,92.405,54.664z"></path></g></svg></g></g></svg>