<svg xmlns="http://www.w3.org/2000/svg" xmlns:xlink="http://www.w3.org/1999/xlink" width="100" height="100" viewBox="0 0 100 100"><g><rect width="100%" height="100%" fill="#CC0096"></rect><g transform="translate(50 50) scale(0.69 0.69) rotate(0) translate(-50 -50)" style="fill:#FFFFFF"><svg fill="#FFFFFF" xmlns="http://www.w3.org/2000/svg" xmlns:xlink="http://www.w3.org/1999/xlink" version="1.1" x="0px" y="0px" viewBox="0 0 100 100" style="enable-background:new 0 0 100 100;" xml:space="preserve"><path d="M87.9833984,32.3562012v-7.1472168C87.9833984,16.8222656,81.1611328,10,72.7744141,10h-5.1855469  c-5.625,0-10.765625,3.0820312-13.4150391,8.0449219L49.22052,27.3193359l-1.2293091-1.2294922  c-0.8955078-0.8938599-2.2506714-1.0379028-3.3065796-0.4540405l-5.053772-5.053772  c-5.9296875-5.9306641-15.5791016-5.9287109-21.5087891,0l-3.6669922,3.6669922  c-3.9775391,3.9765625-5.4326172,9.7910156-3.7988281,15.1748047l11.7333984,38.6289062  c0.6416016,2.1123047,2.1357422,3.5498047,3.5810547,4.9394531c0.2724609,0.2626953,0.546875,0.5263672,0.8164062,0.7958984  l1.4462891,1.4453125c2.9013672,2.9013672,6.5986328,4.5898438,10.4121094,4.7539062C38.8466797,89.9951172,39.0488281,90,39.25,90  c3.6992188,0,7.1923828-1.4667969,9.8925781-4.1669922l7.6787109-7.6787109  c0.0236206-0.0236206,0.0324097-0.0547485,0.0531616-0.0800781h15.8999634c8.3867188,0,15.2089844-6.8222656,15.2089844-15.2089844  V57.130127C89.1434937,56.7960205,90,55.7365112,90,54.4697266V35.015625  C90,33.7496338,89.1434937,32.6902466,87.9833984,32.3562012z M55.9375,18.9863281  C58.2392578,14.6767578,62.703125,12,67.5888672,12h5.1855469c7.2832031,0,13.2089844,5.9257812,13.2089844,13.2089844v7.0273438  h-3.8476562v-6.6621094c0-5.2089844-4.2382812-9.4462891-9.4472656-9.4462891h-4.3632812  c-4.8867188,0-7.953125,1.8388672-10.2636719,6.1640625l-4.6951904,9.1737061l-2.6685181-2.6688232L55.9375,18.9863281z   M80.1357422,57.1526489v4.6266479c0,4.5371094-3.6904297,8.2285156-8.2275391,8.2285156h-6.9404297l1.2900391-1.2900391  c5.9296875-5.9296875,5.9296875-15.5791016,0-21.5087891l-4.0552368-4.0543213  c0.2268066-0.4078369,0.3589478-0.8629761,0.3589478-1.3421631c0-0.7421875-0.2890625-1.4404297-0.8144531-1.9648438  l-6.8938599-6.8948364l4.9807739-9.7340698c1.9316406-3.6162109,4.3916016-5.0908203,8.4912109-5.0908203h4.3632812  c4.1064453,0,7.4472656,3.3408203,7.4472656,7.4462891v6.7594604c-1.1973877,0.3092651-2.0888672,1.3894043-2.0888672,2.6819458  v19.4541016C78.046875,55.7630615,78.9383545,56.8433838,80.1357422,57.1526489z M53.2949219,48.2998047  c0.5410156,0.5419922,1.2529297,0.8125,1.9648438,0.8125c0.4894409,0,0.9750366-0.1374512,1.4092407-0.3934326l3.2714233,3.2723389  c3.2080078,3.2080078,3.2080078,8.4277344,0,11.6357422l-6.3808594,6.3808594h-3.515625  c-4.0039062,0-7.2617188-3.2578125-7.2617188-7.2626953v-3.8935547c0-1.5761719,0.3925781-3.1445312,1.1435547-4.5498047  l5.2038574-10.1674805L53.2949219,48.2998047z M61.3544922,65.0410156c3.9882812-3.9873047,3.9882812-10.4765625,0-14.4638672  l-3.2026978-3.2035522l2.7208252-2.7208252l3.9711304,3.9702759c5.1503906,5.1503906,5.1503906,13.5302734,0,18.6806641  l-2.6865234,2.6865234c-0.005188,0.005188-0.0065918,0.0123291-0.0116577,0.0175781h-5.7578735L61.3544922,65.0410156z   M46.0253906,27.2773438c0.2001953,0,0.3994141,0.0761719,0.5517578,0.2275391l13.7558594,13.7578125  c0.1474609,0.1464844,0.2285156,0.3417969,0.2285156,0.5498047s-0.0810547,0.4042969-0.2285156,0.5517578l-4.5214844,4.5205078  c-0.3046875,0.3037109-0.7978516,0.3046875-1.1025391,0.0009766L40.953125,33.1279297  c-0.1474609-0.1464844-0.2285156-0.3417969-0.2285156-0.5498047s0.0810547-0.4042969,0.2285156-0.5517578l4.5214844-4.5214844  C45.6269531,27.3535156,45.8261719,27.2773438,46.0253906,27.2773438z M34.1943359,59.6796875  c0.0068359,0.3789062,0.0146484,0.7587891,0.0146484,1.140625v2.0449219c0,7.647583,4.8060913,13.6289673,11.5571899,14.9359741  l-1.2857056,1.2857056c-1.3720703,1.3710938-3.1953125,2.1269531-5.1357422,2.1269531  c-1.9394531,0-3.7626953-0.7558594-5.1347656-2.1269531l-2.7529297-2.7529297  c-1.1152344-1.1162109-1.9462891-2.5029297-2.4091797-4.0263672L18.3193359,39.0791016  c-1.1923828-3.921875-0.4960938-6.7041016,2.4033203-9.6035156l3.0859375-3.0859375  c1.40625-1.40625,3.2763672-2.1806641,5.265625-2.1806641s3.859375,0.7744141,5.265625,2.1806641l4.77948,4.77948  c-0.2512207,0.4238281-0.3947144,0.9038086-0.3947144,1.4089966c0,0.7421875,0.2890625,1.4404297,0.8144531,1.9648438  l3.7957764,3.7960205l-8.1795654,15.3162842C34.1152344,55.6035156,34.1552734,57.6757812,34.1943359,59.6796875z   M47.7285156,84.4189453c-2.4462891,2.4462891-5.6171875,3.7207031-8.9980469,3.5693359  c-3.3105469-0.1416016-6.5361328-1.6230469-9.0830078-4.1689453l-1.4462891-1.4453125  c-0.2783203-0.2792969-0.5615234-0.5517578-0.84375-0.8232422c-1.3183594-1.2675781-2.5634766-2.4658203-3.0537109-4.0800781  L12.5703125,38.8427734c-1.4189453-4.6757812-0.1552734-9.7255859,3.2988281-13.1796875l3.6669922-3.6669922  c5.1494141-5.1494141,13.5292969-5.1513672,18.6806641,0l4.9692383,4.9692383l-2.7211914,2.7211914l-4.7109375-4.7109375  c-1.7841797-1.7841797-4.15625-2.7666016-6.6796875-2.7666016s-4.8955078,0.9824219-6.6796875,2.7666016l-3.0859375,3.0859375  c-3.4560547,3.4550781-4.3242188,6.9248047-2.8974609,11.6162109l10.7285156,33.2275391  c0.5517578,1.8203125,1.5556641,3.4941406,2.9033203,4.8427734l2.7529297,2.7529297  c1.7490234,1.7490234,4.0751953,2.7128906,6.5488281,2.7128906c2.4746094,0,4.8007812-0.9638672,6.5498047-2.7128906  l2.4386597-2.4386597c0.0802612,0.0012817,0.1574707,0.0119019,0.2380981,0.0119019h5.5019531L47.7285156,84.4189453z   M72.7744141,76.0742188h-24.203125c-7.0478516,0-12.3623047-5.6787109-12.3623047-13.2089844v-2.0449219  c0-0.3945312-0.0078125-0.7880859-0.0146484-1.1787109C36.1582031,57.8125,36.125,56.0849609,36.9189453,54.5966797  l7.8932495-14.7802124l2.8305054,2.8307495L42.1533203,53.375c-0.8974609,1.6796875-1.3710938,3.5732422-1.3710938,5.4765625  v3.8935547c0,5.1074219,4.1552734,9.2626953,9.2617188,9.2626953h21.8642578  c5.6396484,0,10.2275391-4.5888672,10.2275391-10.2285156V57.25h3.8476562v5.6152344  C85.9833984,70.1484375,80.0576172,76.0742188,72.7744141,76.0742188z M88,54.4697266  C88,54.9003906,87.6503906,55.25,87.2207031,55.25h-6.3945312c-0.4296875,0-0.7792969-0.3496094-0.7792969-0.7802734V35.015625  c0-0.4296875,0.3496094-0.7792969,0.7792969-0.7792969h6.3945312C87.6503906,34.2363281,88,34.5859375,88,35.015625V54.4697266z"></path></svg></g></g></svg>